<svg width="22" height="22" viewBox="0 0 22 22" fill="none" xmlns="http://www.w3.org/2000/svg">
<path d="M19.9753 9.2047H19.2492V9.16666H11.1362V12.8333H16.2307C15.4875 14.9678 13.4903 16.5 11.1362 16.5C8.14929 16.5 5.72758 14.0374 5.72758 11C5.72758 7.96262 8.14929 5.49999 11.1362 5.49999C12.515 5.49999 13.7693 6.02891 14.7244 6.89287L17.2741 4.30008C15.6641 2.77429 13.5106 1.83333 11.1362 1.83333C6.15801 1.83333 2.12182 5.9377 2.12182 11C2.12182 16.0623 6.15801 20.1667 11.1362 20.1667C16.1144 20.1667 20.1506 16.0623 20.1506 11C20.1506 10.3854 20.0884 9.78541 19.9753 9.2047Z" fill="#FBC02D"/>
<path d="M3.16118 6.73337L6.12286 8.94208C6.92424 6.92449 8.86504 5.49999 11.1362 5.49999C12.515 5.49999 13.7693 6.02891 14.7244 6.89287L17.2741 4.30008C15.6641 2.77429 13.5106 1.83333 11.1362 1.83333C7.67379 1.83333 4.67109 3.82112 3.16118 6.73337Z" fill="#E53935"/>
<path d="M11.1362 20.1667C13.4646 20.1667 15.5803 19.2605 17.1799 17.787L14.39 15.3862C13.4849 16.0834 12.3599 16.5 11.1362 16.5C8.79157 16.5 6.80074 14.9797 6.05074 12.8581L3.11115 15.1612C4.60303 18.1298 7.63277 20.1667 11.1362 20.1667Z" fill="#4CAF50"/>
<path d="M19.9753 9.20471L19.9681 9.16667H19.2492H11.1362V12.8333H16.2307C15.8737 13.8586 15.2251 14.7428 14.3886 15.3867C14.3891 15.3863 14.3895 15.3863 14.39 15.3858L17.1799 17.7865C16.9825 17.969 20.1506 15.5833 20.1506 11C20.1506 10.3854 20.0884 9.78542 19.9753 9.20471Z" fill="#1565C0"/>
</svg>
