<svg width="26" height="26" viewBox="0 0 26 26" fill="none" xmlns="http://www.w3.org/2000/svg">
<path d="M22.6875 25.5H3.3125C1.7625 25.5 0.5 24.2375 0.5 22.6875V3.3125C0.5 1.7625 1.7625 0.5 3.3125 0.5H22.6875C24.2375 0.5 25.5 1.7625 25.5 3.3125V22.6875C25.5 24.2375 24.2375 25.5 22.6875 25.5ZM3.3125 2.375C2.795 2.375 2.375 2.79625 2.375 3.3125V22.6875C2.375 23.2038 2.795 23.625 3.3125 23.625H22.6875C23.205 23.625 23.625 23.2038 23.625 22.6875V3.3125C23.625 2.79625 23.205 2.375 22.6875 2.375H3.3125Z" fill="#0F1419"/>
</svg>
