<svg width="18" height="18" viewBox="0 0 18 18" fill="none" xmlns="http://www.w3.org/2000/svg">
<path d="M10.5345 1.68151L7.42351 1.67401H7.42201C4.14151 1.67401 1.57201 4.24426 1.57201 7.52551C1.57201 10.599 3.96151 12.93 7.17076 13.053V15.924C7.17076 16.005 7.20376 16.1385 7.26076 16.2263C7.36726 16.395 7.54876 16.4865 7.73476 16.4865C7.83826 16.4865 7.94251 16.458 8.03626 16.398C8.23426 16.272 12.891 13.293 14.1023 12.2685C15.5288 11.061 16.3823 9.29101 16.3845 7.53451V7.52176C16.38 4.24651 13.812 1.68151 10.5345 1.68076V1.68151ZM13.3748 11.4105C12.5243 12.1305 9.72826 13.9643 8.29576 14.8928V12.5025C8.29576 12.192 8.04451 11.94 7.73326 11.94H7.43626C4.69126 11.94 2.69776 10.083 2.69776 7.52551C2.69776 4.87501 4.77376 2.79901 7.42276 2.79901L10.533 2.80651H10.5345C13.1835 2.80651 15.2595 4.88101 15.261 7.52851C15.2588 8.96101 14.5545 10.4115 13.3755 11.4105H13.3748Z" fill="#5B7083"/>
</svg>
