<svg width="18" height="18" viewBox="0 0 18 18" fill="none" xmlns="http://www.w3.org/2000/svg">
<path d="M17.8275 11.7525C17.6085 11.5327 17.2523 11.5327 17.0325 11.7525L15.3675 13.4175V5.7375C15.3675 4.1865 14.1053 2.925 12.555 2.925H8.1675C7.857 2.925 7.605 3.177 7.605 3.4875C7.605 3.798 7.857 4.05 8.1675 4.05H12.555C13.485 4.05 14.2425 4.8075 14.2425 5.7375V13.4175L12.5775 11.7525C12.3578 11.5327 12.0015 11.5327 11.7825 11.7525C11.5635 11.9722 11.562 12.3285 11.7825 12.5475L14.4075 15.1725C14.5163 15.2827 14.6603 15.3375 14.805 15.3375C14.9498 15.3375 15.0923 15.2835 15.2025 15.1725L17.8275 12.5475C18.048 12.3285 18.048 11.9722 17.8275 11.7525ZM9.8325 14.2125H5.445C4.515 14.2125 3.7575 13.455 3.7575 12.525V4.845L5.4225 6.51C5.5335 6.62025 5.6775 6.675 5.8215 6.675C5.9655 6.675 6.1095 6.62025 6.219 6.51C6.43875 6.29025 6.43875 5.934 6.219 5.715L3.594 3.09C3.37425 2.8695 3.018 2.8695 2.799 3.09L0.174 5.715C-0.0465 5.934 -0.0465 6.29025 0.174 6.51C0.3945 6.72975 0.74925 6.72975 0.969 6.51L2.634 4.845V12.525C2.634 14.076 3.89625 15.3375 5.4465 15.3375H9.834C10.1445 15.3375 10.3965 15.0855 10.3965 14.775C10.3965 14.4645 10.1438 14.2125 9.834 14.2125H9.8325Z" fill="#5B7083"/>
</svg>
