<svg width="18" height="18" viewBox="0 0 18 18" fill="none" xmlns="http://www.w3.org/2000/svg">
<path d="M13.1475 5.6025L9.39749 1.8525C9.17774 1.63275 8.82149 1.63275 8.60249 1.8525L4.85249 5.6025C4.63199 5.82225 4.63199 6.17849 4.85249 6.3975C5.07299 6.6165 5.42774 6.618 5.64749 6.3975L8.43749 3.6075V11.25C8.43749 11.5605 8.68949 11.8125 8.99999 11.8125C9.31049 11.8125 9.56249 11.5605 9.56249 11.25V3.6075L12.3525 6.3975C12.462 6.50775 12.606 6.5625 12.75 6.5625C12.894 6.5625 13.038 6.5085 13.1475 6.3975C13.3672 6.17775 13.3672 5.82225 13.1475 5.6025Z" fill="#5B7083"/>
<path d="M14.781 16.458H3.219C2.271 16.458 1.5 15.687 1.5 14.739V10.5C1.5 10.1895 1.752 9.9375 2.0625 9.9375C2.373 9.9375 2.625 10.1895 2.625 10.5V14.739C2.625 15.0668 2.89125 15.333 3.219 15.333H14.781C15.1088 15.333 15.375 15.0668 15.375 14.739V10.5C15.375 10.1895 15.627 9.9375 15.9375 9.9375C16.248 9.9375 16.5 10.1895 16.5 10.5V14.739C16.5 15.687 15.729 16.458 14.781 16.458Z" fill="#5B7083"/>
</svg>
